# xmcd CD database file generated by Grip 2.96
# 
# Track frame offsets:
#       150
#       15467
#       29440
#       39760
#       51167
#       62672
#       84152
#       94542
#       109735
#       121470
#       131180
# 
# Disc length: 1941 seconds
# 
# Revision: 0
# Processed by: cddbd v1.4PL0 Copyright (c) Steve Scherf et al.
# Submitted via: Grip 2.96
# 
DISCID=8307930b
DTITLE=Red Rivers - Hillbilly Heart
DYEAR=1900
DGENRE=
TTITLE0=Lorraine
TTITLE1=Outside Man
TTITLE2=Before I Go
TTITLE3=Hillbilly Heart
TTITLE4=Hold On To Your Love
TTITLE5=In The End
TTITLE6=Twenty Five Years
TTITLE7=What Kind Of Fool
TTITLE8=Drifting Boy
TTITLE9=Natural Born Lover
TTITLE10=Since I Left You
EXTD=
EXTT0=
EXTT1=
EXTT2=
EXTT3=
EXTT4=
EXTT5=
EXTT6=
EXTT7=
EXTT8=
EXTT9=
EXTT10=
PLAYORDER=
